# xmcd
#
# Track frame offsets: 
#        150
#        13525
#        27650
#        37818
#        51313
#        62610
#        74688
#        86900
#        97075
#        111618
#
# Disc length: 1612 seconds
#
# Revision: 0
# Processed by: cddbd v1.4PL0 Copyright (c) Steve Scherf et al.
# Submitted via: ExactAudioCopy v0.90b3
#
DISCID=91064a0a
DTITLE=Don Williams - Ruby Tuesday (Javelin Records)
DYEAR=1900
DGENRE=Country
TTITLE0=Where Do We Go From Here
TTITLE1=Strawberry Fields
TTITLE2=Apartment No. 9
TTITLE3=Ruby Tuesday
TTITLE4=Always Something There To Remind Me
TTITLE5=Follow Me Back To Louisville
TTITLE6=On Her Way To Be A Woman
TTITLE7=Take My Hand For A While
TTITLE8=Long Walk From Childhood
TTITLE9=In My Life
EXTD=
EXTT0=
EXTT1=
EXTT2=
EXTT3=
EXTT4=
EXTT5=
EXTT6=
EXTT7=
EXTT8=
EXTT9=
PLAYORDER=
